<?xml version="1.0" standalone="no"?><!DOCTYPE svg PUBLIC "-//W3C//DTD SVG 1.1//EN" "http://www.w3.org/Graphics/SVG/1.1/DTD/svg11.dtd"><svg t="1654991767280" class="icon" viewBox="0 0 1024 1024" version="1.1" xmlns="http://www.w3.org/2000/svg" p-id="2175" xmlns:xlink="http://www.w3.org/1999/xlink" width="64" height="64"><defs><style type="text/css">@font-face { font-family: "feedback-iconfont"; src: url("//at.alicdn.com/t/font_1031158_u69w8yhxdu.woff2?t=1630033759944") format("woff2"), url("//at.alicdn.com/t/font_1031158_u69w8yhxdu.woff?t=1630033759944") format("woff"), url("//at.alicdn.com/t/font_1031158_u69w8yhxdu.ttf?t=1630033759944") format("truetype"); }
</style></defs><path d="M522.773 959.515c-84.030 0-170.217-34.474-215.465-85.108-22.624-24.779-32.319-52.789-29.088-78.644 7.54-62.484-1.076-108.807-24.779-136.82-21.548-25.854-58.176-38.781-110.962-39.861-47.404-1.076-89.418-28.010-109.887-70.027-10.773-20.467-21.548-49.557-21.548-81.878 0-115.273 56.020-224.082 158.366-304.882 94.804-74.336 219.772-117.426 342.587-117.426s247.783 43.091 342.587 117.426c102.346 80.798 158.366 188.53 158.366 304.882 0 248.861-242.396 492.335-490.181 492.335zM512 98.738c-267.174 0-447.086 190.686-447.086 368.443 0 17.237 5.387 34.474 16.159 58.176 11.85 23.701 36.628 39.861 62.484 39.861 67.871 2.155 118.506 21.548 150.825 58.176 34.474 39.861 47.404 99.111 37.706 177.759-2.155 14.005 7.54 26.932 16.159 36.628 29.088 33.397 99.111 66.795 175.602 66.795 216.542 0 436.316-220.85 436.316-438.467-1.076-176.679-180.99-367.365-448.164-367.365z" fill="" p-id="2176"></path><path d="M139.248 444.555c0 0 0 0 0 0 0 35.699 28.94 64.641 64.641 64.641 35.699 0 64.641-28.94 64.641-64.641 0 0 0 0 0 0 0 0 0 0 0 0 0-35.699-28.94-64.641-64.641-64.641-35.699 0-64.641 28.94-64.641 64.641s0 0 0 0z" fill="" p-id="2177"></path><path d="M268.526 286.189c0 35.699 28.94 64.641 64.641 64.641s64.641-28.94 64.641-64.641c0-35.699-28.94-64.641-64.641-64.641-35.699 0-64.641 28.94-64.641 64.641z" fill="" p-id="2178"></path><path d="M463.52 234.479c0 0 0 0 0 0 0 35.699 28.94 64.641 64.641 64.641 35.699 0 64.641-28.94 64.641-64.641 0 0 0 0 0 0 0 0 0 0 0 0 0-35.699-28.94-64.641-64.641-64.641-35.699 0-64.641 28.94-64.641 64.641s0 0 0 0z" fill="" p-id="2179"></path></svg>